<?xml version="1.0" encoding="UTF-8"?>
<svg width="162px" height="410px" viewBox="0 0 162 410" version="1.1" xmlns="http://www.w3.org/2000/svg" xmlns:xlink="http://www.w3.org/1999/xlink">
    <title>Fill 1</title>
    <defs>
        <path d="M1936.93088,2465.37449 C1936.77577,2465.02888 1936.61053,2464.6939 1936.38186,2464.42804 C1934.32381,2462.05129 1932.03709,2459.89785 1930.18799,2457.335 C1928.37514,2454.82532 1926.44023,2452.86861 1923.5677,2452.17207 C1922.82092,2451.99129 1921.8508,2451.26284 1921.59494,2450.51844 C1918.14141,2440.5701 1915.21505,2430.47288 1914.43095,2419.71102 C1913.72788,2410.09766 1912.11758,2400.75547 1907.38423,2392.43417 C1905.21532,2388.61115 1904.35127,2384.29365 1904.24519,2379.76877 C1904.08475,2372.84056 1904.03145,2365.90703 1903.70683,2358.98945 C1903.34969,2351.53484 1902.9819,2344.06428 1902.15037,2336.66816 C1901.50486,2330.95756 1898.39727,2327.0867 1893.38728,2325.45966 C1891.53765,2324.86414 1889.66083,2324.35369 1887.78455,2323.8911 C1881.58589,2322.35977 1875.83391,2319.72779 1870.76475,2315.33585 C1867.24192,2312.28382 1865.83418,2308.32788 1866.8736,2303.42017 C1867.65183,2299.75667 1868.58464,2296.13039 1869.38419,2292.76997 C1870.39216,2291.89796 1871.83082,2291.29712 1872.14531,2290.26029 C1873.02002,2287.36245 1873.49389,2284.29447 1873.96829,2281.26371 C1874.06956,2280.63629 1873.49389,2279.88126 1873.24389,2279.1794 C1872.95552,2278.37651 1872.53442,2277.58958 1872.44434,2276.7601 C1872.29456,2275.45209 1872.41183,2274.11749 1872.35373,2272.79353 C1871.92676,2263.57363 1866.36721,2256.58161 1858.40421,2255.21511 C1857.59932,2255.07687 1856.79391,2255.00774 1856.00022,2255.0003 L1856.00022,2255.0003 C1855.206,2255.00562 1854.40112,2255.07474 1853.5957,2255.21299 C1845.6327,2256.57949 1840.07261,2263.57151 1839.64618,2272.7914 C1839.58755,2274.11537 1839.70535,2275.44996 1839.55557,2276.75798 C1839.46495,2277.58745 1839.04385,2278.37438 1838.75601,2279.17727 C1838.50602,2279.87913 1837.93034,2280.63416 1838.03109,2281.26158 C1838.50602,2284.29234 1838.97989,2287.36033 1839.85407,2290.25816 C1840.16909,2291.295 1841.60828,2291.89583 1842.61572,2292.76784 C1843.41527,2296.12826 1844.34808,2299.75454 1845.12631,2303.41804 C1846.16573,2308.32575 1844.75799,2312.28169 1841.23516,2315.33372 C1836.16547,2319.72567 1830.41455,2322.35764 1824.21483,2323.88898 C1822.33908,2324.35157 1820.4628,2324.86201 1818.61263,2325.45753 C1813.60211,2327.08457 1810.49451,2330.95544 1809.85007,2336.66603 C1809.01801,2344.06215 1808.65075,2351.53271 1808.29361,2358.98732 C1807.96846,2365.9049 1807.91463,2372.83843 1807.75471,2379.76665 C1807.64811,2384.29152 1806.78512,2388.60903 1804.61567,2392.43204 C1799.88233,2400.75334 1798.27203,2410.09553 1797.56842,2419.70889 C1796.78486,2430.47075 1793.85903,2440.56798 1790.40443,2450.51632 C1790.14858,2451.26071 1789.17899,2451.98916 1788.43221,2452.16994 C1785.55968,2452.86649 1783.62477,2454.82319 1781.81192,2457.33287 C1779.96282,2459.89573 1777.67557,2462.04916 1775.61805,2464.42592 C1775.38885,2464.69177 1775.22361,2465.02675 1775.06956,2465.37237 C1774.90379,2465.74988 1775.04237,2466.1912 1775.39951,2466.39857 C1775.7625,2466.61126 1776.47144,2466.70165 1776.73796,2466.66443 C1778.36851,2466.44643 1779.56784,2465.46807 1780.70907,2464.23982 C1781.04008,2463.88304 1781.26822,2463.51031 1781.46331,2463.1514 C1781.46384,2463.153 1781.46384,2463.15406 1781.46438,2463.15512 C1781.84976,2462.42721 1782.74206,2462.10606 1782.77991,2464.08137 C1782.77991,2464.08615 1782.78044,2464.08934 1782.78044,2464.09413 C1782.81402,2465.71213 1782.87052,2467.33173 1782.72873,2468.92952 C1782.67543,2469.53036 1782.62266,2470.13119 1782.56349,2470.73203 L1782.5475,2470.90749 C1782.22822,2473.93294 1781.8924,2477.14448 1781.64721,2479.87217 C1781.35937,2483.12625 1781.20479,2485.6891 1781.38069,2486.39096 C1781.64721,2487.44907 1782.28632,2487.364 1782.69675,2487.04497 C1782.86786,2486.91736 1783.00112,2486.74189 1783.04909,2486.59833 C1783.04909,2486.59833 1783.15037,2487.3959 1783.49151,2487.95951 C1783.59225,2488.13498 1783.72551,2488.28918 1783.88542,2488.3902 C1784.30705,2488.65074 1784.95735,2488.2041 1785.38325,2487.8319 C1785.63377,2487.61922 1785.80435,2487.43312 1785.80435,2487.43312 C1785.80435,2487.43312 1785.91149,2488.02864 1786.39655,2488.25196 C1786.6572,2488.37425 1787.03033,2488.3902 1787.55856,2488.1403 C1788.0916,2487.88507 1788.52869,2487.44375 1788.87463,2486.97585 C1789.49828,2486.11979 1789.8133,2485.18397 1789.8133,2485.18397 C1789.8133,2485.18397 1789.60009,2486.39096 1790.64483,2486.6834 C1790.7088,2486.69936 1790.77809,2486.68872 1790.85218,2486.6515 C1791.9561,2486.14106 1794.33823,2480.15929 1795.75131,2475.38451 C1795.7561,2475.3792 1795.7561,2475.36856 1795.7561,2475.36324 C1795.87337,2474.94319 1795.98531,2474.51782 1796.09725,2474.09777 C1797.38186,2469.27514 1798.47511,2464.39401 1799.07158,2459.34275 C1799.42871,2456.30667 1800.93187,2453.35035 1802.27512,2450.58012 C1807.78137,2439.24933 1813.25084,2427.86536 1816.96076,2415.62534 C1819.06571,2408.68649 1820.08381,2401.31696 1821.44358,2394.10162 C1823.04268,2385.66866 1824.48134,2377.19316 1826.08045,2368.19127 C1827.3496,2373.33293 1828.61769,2378.11834 1829.69975,2382.95692 C1831.98114,2393.16049 1830.63257,2402.79512 1825.4568,2411.53647 C1816.66706,2426.37125 1815.67081,2442.92346 1816.69424,2459.98612 C1817.46128,2472.7419 1820.94199,2484.82241 1823.57572,2497.14751 C1826.28353,2509.82885 1828.14916,2522.7601 1830.01478,2535.65413 C1830.60591,2539.73236 1829.99879,2544.0286 1829.98226,2548.22381 C1829.97214,2552.80718 1830.04143,2557.39585 1830.02011,2561.97922 C1829.99292,2568.03542 1830.20134,2574.11821 1829.78504,2580.14252 C1829.14007,2589.47939 1830.53182,2598.39089 1832.83986,2607.28644 C1835.11006,2616.00653 1837.10894,2624.82232 1838.92712,2633.68065 C1839.47028,2636.32326 1839.05451,2639.23705 1838.95857,2642.01791 C1838.86795,2644.54886 1838.55346,2647.06917 1838.44685,2649.60013 C1838.33012,2652.3544 1837.26885,2654.48656 1835.4512,2656.25185 C1834.36381,2657.30996 1833.22844,2658.36807 1832.34361,2659.62822 C1831.32551,2661.0798 1831.74714,2662.70684 1833.29774,2663.07372 C1835.60578,2663.62139 1838.04175,2663.50973 1840.31248,2664.17437 C1842.61572,2664.85496 1844.85979,2663.6267 1847.21528,2664.65291 C1850.41881,2666.05131 1853.15328,2663.0046 1852.86544,2659.06461 C1852.5936,2655.29477 1852.6469,2651.49834 1852.45554,2647.71786 C1852.35959,2645.8037 1852.27431,2643.82573 1851.78392,2642.01791 C1849.99772,2635.39277 1849.92362,2628.64533 1850.56327,2621.87663 C1851.2237,2614.84208 1851.93796,2607.79157 1853.02002,2600.82082 C1854.51252,2591.17024 1854.23055,2581.64195 1852.5243,2572.12961 C1851.76259,2567.85996 1851.66612,2563.4946 1852.37505,2559.20899 C1853.07866,2554.94466 1853.7828,2550.49954 1853.51095,2546.20862 C1852.63144,2532.45854 1854.03812,2518.83606 1854.71028,2505.16573 C1855.37071,2491.79848 1856.17612,2478.42059 1854.57702,2465.05866 C1854.49173,2464.37806 1854.37393,2463.70811 1854.246,2463.00093 C1854.04398,2461.91623 1854.87552,2460.91661 1855.97837,2460.91661 C1855.98423,2460.91661 1855.98903,2460.92193 1856.00022,2460.92193 L1856.00022,2460.92406 C1856.01035,2460.92406 1856.01568,2460.91874 1856.02101,2460.91874 C1857.12439,2460.91874 1857.95646,2461.91836 1857.75337,2463.00305 C1857.62598,2463.71023 1857.50871,2464.38019 1857.42342,2465.06078 C1855.82432,2478.42272 1856.6292,2491.80061 1857.29016,2505.16786 C1857.96179,2518.83819 1859.36847,2532.46066 1858.48949,2546.21075 C1858.21764,2550.50167 1858.92072,2554.94679 1859.62486,2559.21112 C1860.33326,2563.49672 1860.23731,2567.86208 1859.47507,2572.13174 C1857.76936,2581.64407 1857.48685,2591.17236 1858.97988,2600.82294 C1860.06141,2607.7937 1860.77568,2614.8442 1861.43664,2621.87876 C1862.07628,2628.64746 1862.00219,2635.39489 1860.21653,2642.02003 C1859.7256,2643.82785 1859.64085,2645.80583 1859.54437,2647.71999 C1859.35248,2651.50047 1859.40631,2655.29689 1859.13393,2659.06674 C1858.84663,2663.00673 1861.58109,2666.05344 1864.7841,2664.65503 C1867.14011,2663.62883 1869.38419,2664.85709 1871.68743,2664.17649 C1873.95763,2663.51185 1876.39413,2663.62351 1878.70217,2663.07585 C1880.2533,2662.70897 1880.67386,2661.08193 1879.65577,2659.63035 C1878.77146,2658.37019 1877.6361,2657.31208 1876.54871,2656.25398 C1874.73106,2654.48869 1873.66979,2652.35652 1873.55305,2649.60225 C1873.44591,2647.0713 1873.13196,2644.55098 1873.04134,2642.02003 C1872.94486,2639.23918 1872.52963,2636.32539 1873.07279,2633.68278 C1874.89044,2624.82445 1876.88932,2616.00865 1879.16005,2607.28857 C1881.46809,2598.39302 1882.85984,2589.48152 1882.21487,2580.14464 C1881.79857,2574.12087 1882.00645,2568.03755 1881.9798,2561.98134 C1881.95848,2557.39798 1882.02831,2552.8093 1882.01711,2548.22594 C1882.00112,2544.03073 1881.39399,2539.73449 1881.98566,2535.65626 C1883.85128,2522.76223 1885.71691,2509.83098 1888.42472,2497.14963 C1891.05738,2484.82454 1894.53863,2472.74403 1895.30567,2459.98824 C1896.32963,2442.92559 1895.33232,2426.37338 1886.54311,2411.5386 C1881.36734,2402.79724 1880.01823,2393.16261 1882.30015,2382.95905 C1883.38168,2378.12047 1884.65084,2373.33505 1885.91893,2368.19339 C1887.51803,2377.19529 1888.95776,2385.67078 1890.55686,2394.10374 C1891.91557,2401.31908 1892.93366,2408.68862 1895.03915,2415.62747 C1898.74907,2427.86749 1904.21801,2439.25146 1909.72426,2450.58225 C1911.0675,2453.35247 1912.57066,2456.30879 1912.92833,2459.34487 C1913.52533,2464.39614 1914.61805,2469.27726 1915.90213,2474.0999 C1915.91279,2474.20092 1915.93411,2474.30195 1915.96663,2474.40829 C1916.05191,2474.722 1916.14253,2475.04103 1916.24327,2475.36537 C1916.24327,2475.37069 1916.24327,2475.38132 1916.2486,2475.38664 C1917.66168,2480.16195 1920.04381,2486.14372 1921.14772,2486.65416 C1921.22182,2486.69085 1921.29111,2486.70148 1921.35507,2486.68553 C1922.39982,2486.39309 1922.18714,2485.1861 1922.18714,2485.1861 C1922.18714,2485.1861 1922.50163,2486.12245 1923.12528,2486.97797 C1923.47176,2487.44588 1923.90831,2487.8872 1924.44135,2488.14242 C1924.96958,2488.39233 1925.34271,2488.37638 1925.60389,2488.25408 C1926.08842,2488.03076 1926.19503,2487.43525 1926.19503,2487.43525 C1926.19503,2487.43525 1926.36613,2487.62135 1926.61613,2487.83403 C1927.04255,2488.20623 1927.69339,2488.65287 1928.11395,2488.39233 C1928.2744,2488.2913 1928.40766,2488.13764 1928.5084,2487.96164 C1928.85008,2487.39803 1928.95082,2486.60046 1928.95082,2486.60046 C1928.99879,2486.74402 1929.13205,2486.92002 1929.30262,2487.0471 C1929.71306,2487.36612 1930.3527,2487.45173 1930.61922,2486.39309 C1930.79512,2485.69123 1930.64054,2483.12837 1930.3527,2479.87483 C1930.1075,2477.14661 1929.77169,2473.93506 1929.4524,2470.90962 L1929.43588,2470.73415 C1929.37778,2470.13332 1929.32394,2469.53248 1929.27064,2468.93165 C1929.12939,2467.33385 1929.18642,2465.71426 1929.21947,2464.09626 C1929.21947,2464.09147 1929.22,2464.08881 1929.22,2464.08349 C1929.25785,2462.10818 1930.15015,2462.42934 1930.53553,2463.15725 C1930.53606,2463.15619 1930.53606,2463.15512 1930.5366,2463.15406 C1930.73169,2463.51244 1930.95929,2463.88517 1931.29137,2464.24194 C1932.43207,2465.4702 1933.6314,2466.44855 1935.26195,2466.66655 C1935.52847,2466.70377 1936.2374,2466.61338 1936.59987,2466.4007 C1936.957,2466.19333 1937.09612,2465.75201 1936.93088,2465.37449" id="path-1"></path>
    </defs>
    <g id="页面-1" stroke="none" stroke-width="1" fill="none" fill-rule="evenodd">
        <g id="9.1waterminder" transform="translate(-1775.000000, -2255.000000)">
            <mask id="mask-2" fill="white">
                <use xlink:href="#path-1"></use>
            </mask>
            <use id="Fill-1" fill="#3A3A3C" xlink:href="#path-1"></use>
        </g>
    </g>
</svg>