<?xml version="1.0" standalone="no"?><!DOCTYPE svg PUBLIC "-//W3C//DTD SVG 1.1//EN" "http://www.w3.org/Graphics/SVG/1.1/DTD/svg11.dtd"><svg t="1669279780706" class="icon" viewBox="0 0 1024 1024" version="1.1" xmlns="http://www.w3.org/2000/svg" p-id="8547" xmlns:xlink="http://www.w3.org/1999/xlink" width="200" height="200"><path d="M893 370c5.4 0 10 4.6 10 10v488.2c0 5.4-4.6 10-10 10H128.1c-5.4 0-10-4.6-10-10V380c0-5.4 4.6-10 10-10H893m0-50H128.1c-33 0-60 27-60 60v488.2c0 33 27 60 60 60H893c33 0 60-27 60-60V380c0-33-27-60-60-60z" p-id="8548"></path><path d="M513 471c-85.1 0-154 68.9-154 154s68.9 154 154 154 154-68.9 154-154-68.9-154-154-154z m23 178.5v63h-50.8v-63h-63v-50.8h63v-63H536v63h63v50.8h-63zM768 322.6h-50V148.4H306v174.3h-50V141.5c0-23.8 19.3-43.1 43.1-43.1h425.8c23.8 0 43.1 19.3 43.1 43.1v181.1z" p-id="8549"></path></svg>