<?xml version="1.0" standalone="no"?><!DOCTYPE svg PUBLIC "-//W3C//DTD SVG 1.1//EN" "http://www.w3.org/Graphics/SVG/1.1/DTD/svg11.dtd"><svg t="1669284140855" class="icon" viewBox="0 0 1024 1024" version="1.1" xmlns="http://www.w3.org/2000/svg" p-id="2311" xmlns:xlink="http://www.w3.org/1999/xlink" width="200" height="200"><path d="M489.322461 795.345056C270.044279 795.345056 91.667191 617.013988 91.667191 397.689786S270.044279 0 489.322461 0s397.643765 178.331067 397.643765 397.643765-178.377088 397.701291-397.643765 397.701291z m0-738.808355c-188.122018 0-341.16459 153.019561-341.16459 341.14158s153.019561 341.16459 341.16459 341.164589 341.153085-153.019561 341.153084-341.164589S677.432974 56.582722 489.322461 56.582722z" fill="#666666" p-id="2312"></path><path d="M489.322461 681.868971c-118.503871 0-214.986731-96.425334-214.986731-214.963721S370.784074 251.964541 489.322461 251.964541s214.952215 96.45985 214.952215 214.98673-96.425334 214.917699-214.952215 214.9177z m0-373.459771c-87.439749 0-158.496051 71.113828-158.496051 158.49605s71.102322 158.47304 158.496051 158.473041 158.47304-71.090817 158.47304-158.473041-71.090817-158.496051-158.47304-158.49605z" fill="#666666" p-id="2313"></path><path d="M483.765435 154.112558m-48.713145 0a48.713145 48.713145 0 1 0 97.426289 0 48.713145 48.713145 0 1 0-97.426289 0Z" fill="#666666" p-id="2314"></path><path d="M257.596294 994.893253m0.35091-0.607793l147.583339-255.621843q0.35091-0.607793 0.958703-0.256884l44.488464 25.685426q0.607793 0.35091 0.256883 0.958703l-147.58334 255.621843q-0.35091 0.607793-0.958702 0.256884l-44.488464-25.685427q-0.607793-0.35091-0.256883-0.958702Z" fill="#666666" p-id="2315"></path><path d="M529.379931 764.451992m0.607793-0.350909l44.488464-25.685427q0.607793-0.35091 0.958702 0.256884l147.58334 255.621843q0.35091 0.607793-0.256883 0.958702l-44.488464 25.685427q-0.607793 0.35091-0.958703-0.256884l-147.583339-255.621843q-0.35091-0.607793 0.256883-0.958702Z" fill="#666666" p-id="2316"></path><path d="M172.905621 971.225509m26.381493 0l580.507893 0q26.381493 0 26.381492 26.381493l0 0.011505q0 26.381493-26.381492 26.381493l-580.507893 0q-26.381493 0-26.381493-26.381493l0-0.011505q0-26.381493 26.381493-26.381493Z" fill="#666666" p-id="2317"></path></svg>