<?xml version="1.0" standalone="no"?><!DOCTYPE svg PUBLIC "-//W3C//DTD SVG 1.1//EN" "http://www.w3.org/Graphics/SVG/1.1/DTD/svg11.dtd"><svg t="1669279593773" class="icon" viewBox="0 0 1024 1024" version="1.1" xmlns="http://www.w3.org/2000/svg" p-id="6760" xmlns:xlink="http://www.w3.org/1999/xlink" width="200" height="200"><path d="M874.9 577.3c-26.1-27.2-56.8-48.9-90.3-64.1 5.4-4.6 10.6-9.6 15.5-14.8 32.3-34.7 50.1-79.8 50.1-127.2 0-102.9-83.7-186.7-186.7-186.7-11 0-21.8 0.9-32.5 2.8-7.1-9.6-14.9-18.7-23.4-27.2-44.6-44.6-103.9-69.2-167-69.2s-122.4 24.6-167 69.2-69.2 103.9-69.2 167 24.6 122.4 69.2 167c10.8 10.8 22.4 20.4 34.8 28.7-4.9 1.8-9.7 3.8-14.5 5.8-44.9 19-85.2 46.2-119.9 80.8-34.6 34.6-61.8 75-80.8 119.9-19.7 46.5-29.6 95.9-29.6 146.8 0 17.7 1.2 35.5 3.7 52.9l69.3-9.7c-2-14.2-3-28.7-3-43.1 0-169.4 137.8-307.1 307.1-307.1s307.1 137.8 307.1 307.1c0 14.4-1 28.9-3 43.1l69.3 9.7c2.4-17.4 3.7-35.2 3.7-52.9 0-50.9-10-100.3-29.6-146.8-19-44.9-46.2-85.2-80.8-119.9-34.6-34.6-74.9-61.8-119.9-80.8-4.8-2-9.7-4-14.6-5.8 12.3-8.4 24-18 34.8-28.7 44.6-44.6 69.2-103.9 69.2-167 0-25-3.9-49.4-11.3-72.6 63.4 1.1 114.7 53 114.7 116.6 0 45.5-26.6 85.6-65.3 104.7-16.3 8.1-26.8 24.4-26.8 42.6v1c0 21.2 14.1 40 34.6 45.5 94.9 25.8 163.8 112.4 163.8 215 0 10.5-0.7 21-2.2 31.3l69.3 9.7c1.9-13.5 2.9-27.3 2.9-41-0.1-75.8-29.1-147.8-81.7-202.6z m-434.3-84c-91.6 0-166.2-74.6-166.2-166.2S349 160.9 440.6 160.9s166.2 74.6 166.2 166.2-74.5 166.2-166.2 166.2z" p-id="6761"></path></svg>