<?xml version="1.0" standalone="no"?><!DOCTYPE svg PUBLIC "-//W3C//DTD SVG 1.1//EN" "http://www.w3.org/Graphics/SVG/1.1/DTD/svg11.dtd"><svg t="1669279691911" class="icon" viewBox="0 0 1024 1024" version="1.1" xmlns="http://www.w3.org/2000/svg" p-id="7505" xmlns:xlink="http://www.w3.org/1999/xlink" width="200" height="200"><path d="M161.426286 365.714286h701.147428c9.874286 46.372571 15.140571 95.451429 15.140572 146.285714 0 247.661714-125.586286 454.217143-292.571429 501.76V512H438.857143v501.76C271.945143 966.363429 146.285714 759.734857 146.285714 512c0-50.834286 5.266286-99.913143 15.140572-146.285714h701.147428zM512 0c124.342857 0 234.057143 86.820571 300.178286 219.428571H211.821714C277.942857 86.820571 387.730286 0 512 0z" p-id="7506"></path><path d="M585.142857 585.142857m73.142857 0l292.571429 0q73.142857 0 73.142857 73.142857l0 0q0 73.142857-73.142857 73.142857l-292.571429 0q-73.142857 0-73.142857-73.142857l0 0q0-73.142857 73.142857-73.142857Z" p-id="7507"></path><path d="M0 585.142857m73.142857 0l292.571429 0q73.142857 0 73.142857 73.142857l0 0q0 73.142857-73.142857 73.142857l-292.571429 0q-73.142857 0-73.142857-73.142857l0 0q0-73.142857 73.142857-73.142857Z" p-id="7508"></path><path d="M94.565904 283.697712m51.71981 51.71981l103.439621 103.439621q51.71981 51.71981 0 103.43962l0 0q-51.71981 51.71981-103.439621 0l-103.43962-103.43962q-51.71981-51.71981 0-103.439621l0 0q51.71981-51.71981 103.43962 0Z" p-id="7509"></path><path d="M929.445665 283.69292m-51.71981 51.71981l-103.439621 103.439621q-51.71981 51.71981 0 103.43962l0 0q51.71981 51.71981 103.439621 0l103.43962-103.43962q51.71981-51.71981 0-103.439621l0 0q-51.71981-51.71981-103.43962 0Z" p-id="7510"></path><path d="M167.696705 1032.844611m51.719811-51.71981l103.43962-103.439621q51.71981-51.71981 0-103.43962l0 0q-51.71981-51.71981-103.43962 0l-103.439621 103.43962q-51.71981 51.71981 0 103.439621l0 0q51.71981 51.71981 103.439621 0Z" p-id="7511"></path><path d="M856.291239 1032.873717m-51.71981-51.719811l-103.439621-103.43962q-51.71981-51.71981 0-103.439621l0 0q51.71981-51.71981 103.439621 0l103.43962 103.439621q51.71981 51.71981 0 103.43962l0 0q-51.71981 51.71981-103.43962 0Z" p-id="7512"></path></svg>