<?xml version="1.0" standalone="no"?><!DOCTYPE svg PUBLIC "-//W3C//DTD SVG 1.1//EN" "http://www.w3.org/Graphics/SVG/1.1/DTD/svg11.dtd"><svg t="1669280550019" class="icon" viewBox="0 0 1024 1024" version="1.1" xmlns="http://www.w3.org/2000/svg" p-id="2885" xmlns:xlink="http://www.w3.org/1999/xlink" width="200" height="200"><path d="M774.9376 943.2832H206.208v-43.54048h568.7296c3.00544 0 5.55008-2.24256 5.92384-5.22752l55.5776-447.83104 43.20768 5.36576-55.58272 447.8464c-3.08736 24.74496-24.20736 43.38688-49.1264 43.38688z" fill="#FFE8E8" p-id="2886"></path><path d="M799.65184 972.04224H226.11968c-26.78272 0-49.48992-20.03968-52.8128-46.6176l-62.52032-500.1728h804.19328l-62.52032 500.16768c-3.32288 26.58304-26.03008 46.62272-52.80768 46.62272zM160.10752 468.79232l56.40704 451.2256a9.69728 9.69728 0 0 0 9.60512 8.47872h573.53216c4.86912 0 9.00608-3.64544 9.61024-8.48384l56.40192-451.22048H160.10752z" p-id="2887"></path><path d="M437.8624 824.1664l-39.1936 4.9152a3.84 3.84 0 0 1-4.29056-3.33312l-30.36672-242.048a3.84 3.84 0 0 1 3.33312-4.29056l39.1936-4.9152a3.84 3.84 0 0 1 4.29056 3.33312l30.36672 242.048a3.84 3.84 0 0 1-3.33312 4.29056zM587.51488 824.1664l39.1936 4.9152a3.84 3.84 0 0 0 4.29056-3.33312l30.36672-242.048a3.84 3.84 0 0 0-3.33312-4.29056l-39.1936-4.9152a3.84 3.84 0 0 0-4.29056 3.33312l-30.36672 242.048a3.84 3.84 0 0 0 3.33312 4.29056zM213.28384 418.62656l-43.22304-5.23264C197.7856 184.50944 325.94944 47.86176 512.88576 47.86176c188.38016 0 326.19008 147.28192 342.92224 366.4896l-43.41248 3.31264c-12.40064-162.40128-109.81376-326.26688-299.50976-326.26688-162.78016 0.00512-274.78016 122.33216-299.60192 327.22944z" p-id="2888"></path><path d="M796.78464 411.8272H170.56768S170.16832 28.6208 494.1824 366.92992c5.7344 5.98528 15.80032 4.62336 19.95264-2.54464 36.352-62.7456 189.1328-295.26528 282.6496 47.44192z" fill="#FB2F19" p-id="2889"></path><path d="M947.2256 469.4784H76.7744a5.12 5.12 0 0 1-5.12-5.12V411.69408a5.12 5.12 0 0 1 5.12-5.12h870.44608a5.12 5.12 0 0 1 5.12 5.12v52.66432a5.10976 5.10976 0 0 1-5.11488 5.12z" p-id="2890"></path></svg>