<?xml version="1.0" standalone="no"?><!DOCTYPE svg PUBLIC "-//W3C//DTD SVG 1.1//EN" "http://www.w3.org/Graphics/SVG/1.1/DTD/svg11.dtd"><svg t="1669279649514" class="icon" viewBox="0 0 1460 1024" version="1.1" xmlns="http://www.w3.org/2000/svg" p-id="7181" xmlns:xlink="http://www.w3.org/1999/xlink" width="285.15625" height="200"><path d="M1324.122353 0H133.571765C61.289412 0 6.023529 55.461647 6.023529 128v768c0 72.538353 55.265882 128 127.548236 128h1190.550588c72.282353 0 127.548235-55.461647 127.548235-128v-768c0-68.261647-55.265882-128-127.548235-128z m10.089412 948.705882H123.482353c-25.298824 0-42.164706-16.865882-42.164706-42.164706V117.458824C81.317647 92.16 98.183529 75.294118 123.482353 75.294118h1210.729412c25.298824 0 42.164706 16.865882 42.164706 42.164706v789.082352c0 25.298824-16.865882 42.164706-42.164706 42.164706z" p-id="7182"></path><path d="M582.776471 553.020235a196.261647 196.261647 0 0 0 53.970823-135.228235C636.747294 313.148235 553.712941 225.882353 454.038588 225.882353c-99.659294 0-182.708706 87.235765-182.708706 191.924706 0 52.344471 20.766118 100.321882 53.985883 135.228235C233.953882 600.997647 171.670588 701.304471 171.670588 814.712471c0 26.172235 16.609882 43.625412 41.532236 43.625411 24.907294 0 41.517176-17.453176 41.517176-43.625411 0-113.392941 87.190588-204.995765 195.162353-204.995765 107.971765 0 195.162353 91.587765 195.162353 204.995765 0 26.172235 16.624941 43.625412 41.532235 43.625411 24.922353 0 41.532235-17.453176 41.532235-43.625411 8.297412-113.392941-53.985882-213.729882-145.347764-261.707295zM457.788235 316.235294c57.103059 0 105.411765 48.308706 105.411765 105.411765s-48.308706 105.411765-105.411765 105.411765-105.411765-48.308706-105.411764-105.411765c0-61.485176 48.308706-105.411765 105.411764-105.411765z m402.959059 75.294118H1139.049412c24.937412 0 41.547294-18.070588 41.547294-45.176471s-16.609882-45.176471-41.547294-45.17647H860.762353c-24.937412 0-41.547294 18.070588-41.547294 45.17647s16.609882 45.176471 41.547294 45.176471z m-13.989647 180.705882h140.649412c25.569882 0 42.616471-18.070588 42.61647-45.17647s-17.046588-45.176471-42.61647-45.176471h-140.649412c-25.569882 0-42.616471 18.070588-42.616471 45.176471s17.046588 45.176471 42.616471 45.17647z m336.007529 120.470588H847.164235c-25.810824 0-43.023059 18.070588-43.023059 45.176471s17.212235 45.176471 43.023059 45.176471h335.600941c25.810824 0 43.023059-18.070588 43.023059-45.176471s-17.212235-45.176471-43.023059-45.176471z" p-id="7183"></path></svg>