<?xml version="1.0" standalone="no"?><!DOCTYPE svg PUBLIC "-//W3C//DTD SVG 1.1//EN" "http://www.w3.org/Graphics/SVG/1.1/DTD/svg11.dtd"><svg t="1669878343855" class="icon" viewBox="0 0 1024 1024" version="1.1" xmlns="http://www.w3.org/2000/svg" p-id="2701" xmlns:xlink="http://www.w3.org/1999/xlink" width="200" height="200"><path d="M921.71 886.23H105.65a32.6 32.6 0 0 1-32.57-32.57V329.55A32.6 32.6 0 0 1 105.65 297h816.06a32.6 32.6 0 0 1 32.57 32.57v524.09a32.6 32.6 0 0 1-32.57 32.57z m-790.2-58.43h764.34V355.41H131.51z" p-id="2702"></path><path d="M128.83 509.31h769.69v58.42H128.83zM688.87 312.93h-58.43a116.76 116.76 0 0 0-233.53 0h-58.42c0-96.6 78.59-175.19 175.19-175.19s175.19 78.59 175.19 175.19z" p-id="2703"></path><path d="M513.68 645.44a81 81 0 0 1-81-81h29.21a51.75 51.75 0 0 0 103.49 0h29.21a81 81 0 0 1-80.91 81z" p-id="2704"></path></svg>